<?xml version="1.0" standalone="no"?>
<!DOCTYPE svg PUBLIC "-//W3C//DTD SVG 20010904//EN"
 "http://www.w3.org/TR/2001/REC-SVG-20010904/DTD/svg10.dtd">
<svg version="1.0" xmlns="http://www.w3.org/2000/svg"
 width="83.000000pt" height="83.000000pt" viewBox="0 0 83.000000 83.000000"
 preserveAspectRatio="xMidYMid meet">
<metadata>
Created by potrace 1.11, written by Peter Selinger 2001-2013
</metadata>
<g transform="translate(0.000000,83.000000) scale(0.100000,-0.100000)"
fill="#000000" stroke="none">
<path d="M230 810 c0 -5 12 -18 26 -29 14 -11 68 -59 121 -108 52 -48 107 -99
122 -112 14 -13 52 -48 83 -76 l56 -53 -139 2 c-77 1 -138 -1 -137 -5 2 -3 43
-60 93 -127 l89 -120 29 14 c36 19 81 66 111 118 56 97 53 215 -8 320 -63 108
-211 173 -332 146 -25 -6 -42 -2 -73 16 -23 12 -41 19 -41 14z"/>
<path d="M188 701 c-70 -62 -109 -155 -104 -250 7 -117 89 -235 193 -278 30
-12 76 -21 122 -22 66 -2 79 -6 113 -33 44 -35 50 -26 10 17 -15 17 -56 64
-92 105 -36 41 -69 80 -75 86 -58 63 -141 158 -143 165 -2 5 53 10 122 11
l126 3 -103 117 c-56 64 -107 117 -113 117 -6 1 -31 -17 -56 -38z"/>
</g>
</svg>
