<?xml version="1.0" standalone="no"?>
<!DOCTYPE svg PUBLIC "-//W3C//DTD SVG 20010904//EN"
 "http://www.w3.org/TR/2001/REC-SVG-20010904/DTD/svg10.dtd">
<svg version="1.0" xmlns="http://www.w3.org/2000/svg"
 width="700.000000pt" height="700.000000pt" viewBox="0 0 700.000000 700.000000"
 preserveAspectRatio="xMidYMid meet">
<metadata>
Created by potrace 1.11, written by Peter Selinger 2001-2013
</metadata>
<g transform="translate(0.000000,700.000000) scale(0.100000,-0.100000)"
fill="#000000" stroke="none">
<path d="M1826 6362 c22 -20 74 -66 114 -102 40 -36 85 -76 100 -90 15 -14 58
-52 96 -85 121 -106 169 -148 180 -159 6 -6 42 -38 79 -71 38 -33 73 -65 79
-70 6 -6 70 -62 141 -125 72 -63 135 -119 141 -125 6 -5 27 -23 45 -40 19 -16
73 -64 119 -106 47 -41 100 -89 119 -105 19 -16 39 -34 45 -39 14 -13 267
-237 366 -324 41 -36 95 -84 120 -107 25 -22 63 -56 84 -75 22 -19 47 -41 55
-49 9 -8 90 -80 181 -159 91 -79 170 -149 175 -155 6 -6 44 -40 85 -76 41 -36
80 -69 86 -75 6 -5 44 -39 85 -75 40 -36 98 -87 129 -115 31 -27 72 -64 91
-80 19 -17 59 -53 90 -80 30 -28 86 -77 124 -110 37 -33 75 -67 84 -75 9 -8
50 -44 91 -80 41 -36 77 -68 80 -71 3 -3 43 -39 90 -79 86 -76 145 -128 233
-211 l50 -45 -444 2 c-244 1 -662 5 -929 9 -686 10 -953 12 -967 7 -9 -3 -7
-13 9 -36 27 -38 717 -938 773 -1007 7 -9 173 -225 370 -480 196 -255 372
-482 390 -504 l33 -40 69 34 c37 19 87 47 111 63 24 15 46 28 50 28 14 0 199
126 272 185 168 135 378 345 449 449 8 12 18 23 21 26 12 10 108 148 159 229
228 362 382 899 375 1307 -1 98 -13 288 -19 319 -2 11 -7 43 -10 70 -14 119
-112 461 -166 582 -55 123 -116 244 -152 303 -48 78 -129 203 -137 210 -3 3
-25 32 -50 65 -95 129 -294 327 -466 465 -155 124 -372 254 -576 346 -93 42
-365 138 -418 148 -14 2 -54 11 -90 20 -85 20 -227 43 -320 53 -138 15 -639 6
-670 -12 -3 -1 -34 -6 -70 -9 -36 -4 -105 -16 -155 -28 -174 -42 -145 -51
-612 185 -227 114 -416 207 -420 207 -5 0 10 -17 33 -38z"/>
<path d="M2078 5701 c-222 -149 -248 -170 -449 -371 -212 -211 -341 -392 -481
-671 -37 -76 -68 -141 -68 -145 0 -5 -7 -21 -14 -36 -27 -52 -107 -298 -120
-368 -2 -14 -11 -60 -20 -102 -18 -87 -25 -128 -31 -184 -28 -264 -24 -495 11
-694 9 -47 18 -98 20 -115 27 -161 135 -479 218 -642 256 -506 716 -963 1206
-1200 258 -124 560 -220 780 -248 30 -4 58 -9 61 -10 41 -26 622 -26 764 -1
90 16 144 17 172 3 30 -16 868 -642 911 -680 36 -33 25 -6 -16 39 -20 22 -62
69 -92 103 -30 35 -62 71 -71 80 -9 9 -51 57 -94 106 -44 50 -82 92 -85 95 -3
3 -39 43 -80 90 -41 47 -89 101 -106 120 -17 19 -125 141 -240 270 -115 129
-213 240 -219 246 -5 6 -39 44 -75 84 -36 41 -74 84 -85 96 -11 12 -36 39 -55
60 -19 22 -91 102 -160 179 -68 77 -131 147 -139 156 -9 8 -43 46 -76 83 -33
38 -69 78 -80 90 -11 13 -42 47 -70 78 -27 30 -64 70 -80 89 -76 86 -213 238
-251 279 -60 65 -149 164 -229 254 -38 43 -79 88 -90 100 -11 12 -38 42 -60
67 -22 24 -76 85 -121 134 -44 50 -127 142 -184 205 -56 63 -123 138 -149 166
-25 27 -80 88 -121 134 -41 46 -85 95 -98 108 -12 14 -21 26 -19 28 2 3 2094
17 2145 15 35 -1 26 19 -39 89 -83 88 -128 137 -239 259 -107 118 -102 112
-190 207 -55 60 -167 182 -258 282 -14 15 -64 70 -113 122 -48 52 -97 106
-109 120 -12 14 -45 50 -73 80 -84 90 -257 278 -387 420 -162 177 -220 239
-305 327 l-100 103 -147 -99z"/>
</g>
</svg>
