<svg clip-rule="evenodd" fill-rule="evenodd" stroke-linejoin="round" stroke-miterlimit="2" viewBox="0 0 1626 278" xmlns="http://www.w3.org/2000/svg"><path d="m3 199c18 18 45 30 82 30 51 0 77-26 77-61 0-43-41-53-72-60-23-5-39-9-39-22 0-11 10-19 28-19 19 0 40 6 55 21l23-30c-19-18-44-27-75-27-45 0-73 26-73 58 0 43 41 51 72 58 22 6 39 11 39 25 0 11-11 22-33 22-27 0-48-12-61-26zm396 27h122v-36h-81v-156h-41zm150 0h136v-36h-95v-44h93v-35h-93v-42h95v-35h-136zm260 3c44 0 68-23 82-47l-36-17c-8 16-25 28-46 28-34 0-59-27-59-63s25-63 59-63c21 0 38 12 46 28l36-18a89 89 0 0 0 -86-46 97 97 0 0 0 -97 99c0 59 45 99 101 99zm150-3h42v-156h56v-36h-154v36h56zm232 0h47l-43-73c21-5 42-23 42-57 0-36-24-62-64-62h-90v192h41v-69h30zm4-131c0 16-12 27-28 27h-43v-53h43c16 0 28 10 28 26zm73 54c0 47 27 80 86 80 58 0 86-32 86-80v-115h-42v114c0 27-15 45-44 45-30 0-45-18-45-45v-114h-41zm196 50c18 18 45 30 82 30 52 0 77-26 77-61 0-43-41-53-72-60-22-5-39-9-39-22 0-11 10-19 29-19 18 0 39 6 55 21l22-30c-19-18-44-27-74-27-46 0-73 26-73 58 0 43 40 51 71 58 23 6 39 11 39 25 0 11-11 22-33 22-27 0-48-12-61-26zm-1163-166a100 100 0 0 1 -24 197l66-135c1-2 0-2-1-4-3-3-2-3-36 5l-31 7zm-64 4-30 116c0 2 3 5 6 5l64-14-21 84a100 100 0 0 1 -19-191z" fill="#d1d5db"/></svg>