<svg clip-rule="evenodd" fill-rule="evenodd" stroke-linejoin="round" stroke-miterlimit="2" viewBox="0 0 5000 5000" xmlns="http://www.w3.org/2000/svg"><path d="m0 0h5000v5000h-5000z" fill="#4f46e5"/><g fill="#a5b4fc" fill-rule="nonzero"><path d="m1167.87 3405.37c0 17.6-3.5 34.1-10.5 49.5s-17.1 28.8-30.3 40.2-29.2 20.4-48 27-40.2 9.9-64.2 9.9c-22 0-44-2.4-66-7.2s-42.4-11.8-61.2-21l19.8-75c14 6.8 29.8 12.7 47.4 17.7s36.6 7.5 57 7.5c16.8 0 30.6-3.1 41.4-9.3s16.2-16.3 16.2-30.3c0-10-4.7-19.1-14.1-27.3s-26.5-16.9-51.3-26.1c-39.2-14.8-67.8-31.7-85.8-50.7s-27-43.3-27-72.9c0-38.8 12.7-68.4 38.1-88.8s60.5-30.6 105.3-30.6c22.8 0 44.6 2.5 65.4 7.5s38.4 11.5 52.8 19.5l-16.8 73.8c-14-6.8-29.3-12.3-45.9-16.5s-33.7-6.3-51.3-6.3c-14.8 0-26.7 2.5-35.7 7.5s-13.5 13.5-13.5 25.5c0 5.6.8 10.4 2.4 14.4s4.5 7.8 8.7 11.4 10.1 7.2 17.7 10.8 17.2 7.8 28.8 12.6c16.8 6.8 32.6 14 47.4 21.6s27.6 16.4 38.4 26.4 19.3 21.4 25.5 34.2 9.3 27.8 9.3 45z"/><path d="m1613.07 3324.97c0 28.4-4.6 55.1-13.8 80.1s-22.5 46.9-39.9 65.7-38.7 33.7-63.9 44.7-54 16.5-86.4 16.5-61.3-5.5-86.7-16.5-46.8-25.9-64.2-44.7-30.6-40.7-39.6-65.7-13.5-51.7-13.5-80.1 4.5-55.1 13.5-80.1 22.2-46.9 39.6-65.7 38.8-33.7 64.2-44.7 54.3-16.5 86.7-16.5 61.2 5.5 86.4 16.5 46.5 25.9 63.9 44.7 30.7 40.7 39.9 65.7 13.8 51.7 13.8 80.1zm-204 129c17.2 0 32.4-3.2 45.6-9.6s24.3-15.3 33.3-26.7 15.7-25 20.1-40.8 6.6-33.1 6.6-51.9-2.2-36.1-6.6-51.9-11.1-29.4-20.1-40.8-20.1-20.3-33.3-26.7-28.4-9.6-45.6-9.6c-17.6 0-32.9 3.2-45.9 9.6s-24 15.3-33 26.7-15.7 25-20.1 40.8-6.6 33.1-6.6 51.9 2.2 36.1 6.6 51.9 11.1 29.4 20.1 40.8 20 20.3 33 26.7 28.3 9.6 45.9 9.6z"/><path d="m1770.87 3125.17v321.6h147v78h-245.4v-399.6z"/><path d="m1967.67 3125.17h249v78h-150.6v80.4h143.4v78h-143.4v85.2h152.4v78h-250.8z"/><path d="m2482.47 3117.97c20.8 0 41.7 2 62.7 6s39.1 9.8 54.3 17.4l-14.4 72.6c-12-4.8-25.7-8.9-41.1-12.3s-30.7-5.1-45.9-5.1c-40.8 0-73 10.6-96.6 31.8s-35.4 53.4-35.4 96.6 11.8 75.4 35.4 96.6 55.8 31.8 96.6 31.8c15.2 0 30.5-1.7 45.9-5.1s29.1-7.5 41.1-12.3l14.4 72.6c-15.2 7.6-33.3 13.4-54.3 17.4s-41.9 6-62.7 6c-35.2 0-66.2-5.2-93-15.6s-49.2-24.8-67.2-43.2-31.6-40.2-40.8-65.4-13.8-52.8-13.8-82.8 4.6-57.6 13.8-82.8 22.8-47 40.8-65.4 40.4-32.8 67.2-43.2 57.8-15.6 93-15.6z"/><path d="m2945.07 3125.17v78h-107.4v321.6h-98.4v-321.6h-107.4v-78z"/><path d="m3293.67 3251.77c0 26.8-7.5 50.2-22.5 70.2s-35.9 35.2-62.7 45.6l131.4 157.2h-121.2l-109.8-138.6h-18v138.6h-98.4v-399.6h127.2c24.8 0 47.8 2.6 69 7.8s39.6 13 55.2 23.4 27.8 23.5 36.6 39.3 13.2 34.5 13.2 56.1zm-94.8 1.8c0-18-7-31.3-21-39.9s-33.6-12.9-58.8-12.9h-28.2v112.2h24c26.4 0 47-5.2 61.8-15.6s22.2-25 22.2-43.8z"/><path d="m3611.67 3125.17h98.4v255.6c0 47.2-14.9 84.2-44.7 111s-71.3 40.2-124.5 40.2-94.7-13.4-124.5-40.2-44.7-63.8-44.7-111v-255.6h98.4v258.6c0 22.8 6 40.2 18 52.2s29.6 18 52.8 18 40.8-6 52.8-18 18-29.4 18-52.2z"/><path d="m4049.07 3405.37c0 17.6-3.5 34.1-10.5 49.5s-17.1 28.8-30.3 40.2-29.2 20.4-48 27-40.2 9.9-64.2 9.9c-22 0-44-2.4-66-7.2s-42.4-11.8-61.2-21l19.8-75c14 6.8 29.8 12.7 47.4 17.7s36.6 7.5 57 7.5c16.8 0 30.6-3.1 41.4-9.3s16.2-16.3 16.2-30.3c0-10-4.7-19.1-14.1-27.3s-26.5-16.9-51.3-26.1c-39.2-14.8-67.8-31.7-85.8-50.7s-27-43.3-27-72.9c0-38.8 12.7-68.4 38.1-88.8s60.5-30.6 105.3-30.6c22.8 0 44.6 2.5 65.4 7.5s38.4 11.5 52.8 19.5l-16.8 73.8c-14-6.8-29.3-12.3-45.9-16.5s-33.7-6.3-51.3-6.3c-14.8 0-26.7 2.5-35.7 7.5s-13.5 13.5-13.5 25.5c0 5.6.8 10.4 2.4 14.4s4.5 7.8 8.7 11.4 10.1 7.2 17.7 10.8 17.2 7.8 28.8 12.6c16.8 6.8 32.6 14 47.4 21.6s27.6 16.4 38.4 26.4 19.3 21.4 25.5 34.2 9.3 27.8 9.3 45z"/><path d="m2719.1 1286.37c364.523 96.831 633.42 429.286 633.42 824.051 0 466.47-375.457 845.934-840.328 852.428 61.795-123.934 140.222-281.323 224.148-449.889 220.973-444.15 342.14-691.707 343.304-701.537 1.942-13.47.777-16.383-13.203-30.218-25.244-25.483-16.312-26.575-304.082 39.683-139.807 32.402-257.478 59.706-260.973 60.797-4.271 1.093-6.99 0-6.99-2.912 0-2.548 50.873-133.245 112.622-290.517 62.136-156.909 112.623-290.517 112.623-295.979 0-1.974-.184-3.945-.541-5.907zm-544.888 36.096c-58.531 209.697-254.579 960.451-254.579 979.341 0 25.12 25.243 47.327 53.593 47.327 6.214 0 130.875-28.032 276.508-61.889 146.02-34.221 266.409-61.525 267.963-61.162 1.554.728-55.534 224.624-126.603 498.032-22.118 84.629-41.398 158.849-57.799 222.499-390.795-77.571-685.809-422.703-685.809-836.193 0-355.147 217.633-659.864 526.726-787.955z"/></g><path d="m2074.59 3833.33 368.631-1281.47 229.106 83.421-597.737 1198.05z" fill="#4f46e5"/></svg>
