<svg xmlns="http://www.w3.org/2000/svg" viewBox="0 0 1200 1200">
  <path fill="#a5b4fc" d="M866.839 1162.06c-.096-.466-1.718-1.775-3.53-2.99-1.909-1.308-12.786-9.439-24.33-18.223-36.161-27.57-62.4-47.382-80.623-60.933-9.732-7.196-25.665-19.065-35.302-26.355-20.131-15.14-17.269-14.205-36.637-11.401-33.299 4.766-84.82 6.542-115.066 3.925-79.573-6.916-160.195-35.233-220.877-77.568-42.076-29.345-71.94-57.1-103.711-96.352-18.7-23.177-42.458-61.026-54.766-87.38-6.011-12.99-17.27-41.681-20.323-52.148-1.717-5.514-4.293-14.392-5.915-19.813-3.721-12.616-10.973-48.503-12.69-63.269-6.297-51.4-2.862-104.763 9.923-157.659 13.357-55.138 41.885-114.95 77.092-161.77 13.071-17.383 25.856-31.775 43.507-49.158 20.132-19.719 36.352-33.457 54.766-46.354 12.117-8.504 41.6-27.756 43.508-28.503.763-.28 17.841 17.663 42.648 44.671 22.708 24.766 49.996 54.298 60.49 65.7 10.496 11.307 31.296 34.017 46.275 50.465 27.192 29.812 89.591 97.847 106.765 116.445 4.962 5.42 11.927 12.99 15.361 16.822 3.34 3.831 14.884 16.261 25.475 27.756 10.59 11.402 19.368 20.934 19.368 21.12 0 1.122-61.73 1.776-209.331 2.337l-165.92.654 22.23 24.766c12.309 13.551 27.193 30.186 33.3 36.915 6.106 6.729 15.36 17.009 20.608 22.803 5.248 5.887 14.025 15.794 19.655 21.962a56249.892 56249.892 0 0168.886 76.633c6.87 7.663 24.521 27.195 39.119 43.457 14.693 16.167 30.34 33.737 35.016 38.877 4.58 5.14 23.28 25.98 41.599 46.354 18.319 20.373 36.733 40.933 41.027 45.793 4.293 4.766 22.135 24.765 39.595 44.297 17.46 19.626 35.493 39.719 39.977 44.765 4.39 5.047 18.987 21.402 32.345 36.354 13.262 15.047 30.34 34.205 37.783 42.71 11.926 13.55 39.118 44.11 64.211 72.24 9.255 10.28 11.068 12.803 9.732 12.803-.572 0-1.145-.373-1.24-.747"/>
  <path fill="#a5b4fc" d="M771.619 977.112c-10.417-13.547-32.206-41.93-48.453-63.034-16.341-21.104-40.424-52.344-53.517-69.485-13.188-17.049-31.537-40.825-40.806-52.805-85.15-110.217-109.71-142.379-109.71-143.577 0-1.29 6.402-1.382 57.053-.921 31.44.276 71.1.921 88.207 1.382 17.011.553 82.187 1.198 144.783 1.567l113.724.645-1.911-2.028c-2.103-2.304-21.312-19.444-64.508-57.596-15.003-13.179-38.322-33.913-51.892-45.986-13.666-12.072-30.008-26.632-36.41-32.254-6.404-5.621-25.135-22.21-41.668-36.862-16.628-14.745-36.984-32.715-45.394-40.18-8.41-7.372-21.311-18.799-28.765-25.342-7.359-6.635-23.032-20.55-34.786-30.872-11.755-10.413-30.677-27.185-42.05-37.23-11.276-10.137-30.007-26.633-41.57-36.862-11.564-10.23-32.493-28.66-46.35-41.101-13.953-12.349-32.684-28.937-41.572-36.862-8.983-7.833-22.745-20.09-30.581-27.186-20.833-18.707-36.793-32.807-41.093-36.401-3.919-3.133-34.022-29.95-49.695-44.326-4.778-4.24-11.181-9.953-14.24-12.626-3.153-2.764-5.447-5.068-5.255-5.345.286-.184 3.631 1.198 7.55 3.226 3.917 1.935 36.983 18.523 73.585 36.954 56.289 28.291 66.992 33.36 70.242 33.36 3.44-.092 24.942-4.424 32.97-6.635 4.97-1.475 41.571-6.451 54.282-7.373 21.31-1.658 59.155-2.211 77.122-1.013 83.142 5.345 163.513 33.175 233.468 80.912 39.373 26.909 80.276 65.43 106.365 100.264 27.619 36.862 45.872 69.853 61.927 111.968 6.69 17.51 17.298 55.662 20.547 73.724 6.499 36.954 8.697 86.165 4.97 113.35-6.403 47.184-6.881 49.948-15.004 78.332-17.585 62.112-46.732 116.391-89.642 167.26-24.465 28.845-62.5 62.85-91.457 81.742-21.215 13.731-57.435 33.913-61.066 33.913-.287 0-8.984-11.15-19.4-24.697"/>
</svg>
